<svg viewBox="0 0 640 400" data-background-color="#1f2d5a" preserveAspectRatio="xMidYMid meet" height="400" width="640" xmlns="http://www.w3.org/2000/svg" xmlns:xlink="http://www.w3.org/1999/xlink"><rect width="640" height="400" x="0" y="0" opacity="1" fill="#1f2d5a" data-fill-palette-color="background" id="background"></rect><g id="tight-bounds" transform="matrix(1,0,0,1,122.24000000000001,108.81844287158748)"><svg viewBox="0 0 395.52 182.36311425682504" height="182.36311425682504" width="395.52"><g><svg viewBox="0 0 395.52 182.36311425682504" height="182.36311425682504" width="395.52"><g><svg viewBox="0 0 395.52 182.36311425682504" height="182.36311425682504" width="395.52"><g><svg viewBox="0 0 395.52 182.36311425682504" height="182.36311425682504" width="395.52"><g><svg viewBox="0 0 395.52 182.36311425682504" height="182.36311425682504" width="395.52"><g transform="matrix(1,0,0,1,0,0)"><svg width="395.52" viewBox="-1.399999976158142 -38.099998474121094 98.88999938964844 45.599998474121094" height="182.36311425682504" data-palette-color="#fbfbfb"><path d="M-1.4 7.5L-1.4 7.5-1.4 2.35Q2.1 2.15 4.33-0.05 6.55-2.25 6.55-6.9L6.55-6.9 6.55-36.25 12.05-36.25 12.05-6.75Q12.05-3.4 11.05-0.8 10.05 1.8 8.25 3.63 6.45 5.45 3.98 6.43 1.5 7.4-1.4 7.5ZM18.25-18.1L18.25-18.1Q18.25-21.85 19.7-25.23 21.15-28.6 23.67-31.15 26.2-33.7 29.55-35.18 32.9-36.65 36.75-36.65L36.75-36.65Q40.55-36.65 43.92-35.18 47.3-33.7 49.82-31.15 52.35-28.6 53.82-25.23 55.3-21.85 55.3-18.1L55.3-18.1Q55.3-14.25 53.82-10.9 52.35-7.55 49.82-5.03 47.3-2.5 43.92-1.05 40.55 0.4 36.75 0.4L36.75 0.4Q32.9 0.4 29.55-1.05 26.2-2.5 23.67-5.03 21.15-7.55 19.7-10.9 18.25-14.25 18.25-18.1ZM23.7-18.05L23.7-18.05Q23.7-15.3 24.72-12.88 25.75-10.45 27.55-8.65 29.35-6.85 31.75-5.8 34.15-4.75 36.85-4.75L36.85-4.75Q39.55-4.75 41.92-5.8 44.3-6.85 46.07-8.65 47.85-10.45 48.87-12.88 49.9-15.3 49.9-18.1L49.9-18.1Q49.9-20.85 48.87-23.28 47.85-25.7 46.05-27.5 44.25-29.3 41.87-30.35 39.5-31.4 36.8-31.4L36.8-31.4Q34.1-31.4 31.7-30.35 29.3-29.3 27.52-27.5 25.75-25.7 24.72-23.25 23.7-20.8 23.7-18.05ZM64.55-36.25L64.55-36.25 86-36.25 65.4-5.25 86.45-5.25 86.45 0 55.9 0Q56.4-0.65 57.45-2.25 58.5-3.85 59.9-6.03 61.3-8.2 62.97-10.8 64.65-13.4 66.4-16.07 68.15-18.75 69.82-21.35 71.5-23.95 72.9-26.1 74.3-28.25 75.34-29.8 76.4-31.35 76.9-32L76.9-32 62.4-32Q61.6-32 60.82-32.23 60.05-32.45 59.45-32.85 58.85-33.25 58.47-33.85 58.1-34.45 58.1-35.2L58.1-35.2 58.1-38.1 63-38.1 63-37.4Q63-36.5 63.35-36.38 63.7-36.25 64.55-36.25ZM92.04 0L92.04-36.25 97.49-36.25 97.49 0 92.04 0Z" opacity="1" transform="matrix(1,0,0,1,0,0)" fill="#fbfbfb" class="undefined-text-0" data-fill-palette-color="primary" id="text-0"></path></svg></g></svg></g></svg></g></svg></g><g></g></svg></g></svg><rect width="395.52" height="182.36311425682504" fill="none" stroke="none" visibility="hidden"></rect></g><defs></defs></svg>