<svg xmlns="http://www.w3.org/2000/svg" aria-hidden="true" style="width: 0; height: 0; position: absolute;"><symbol id="icon-chevron-down" viewBox="0 0 20 20">
  <polyline fill="none" stroke="currentColor" points="16 7 10 13 4 7"></polyline>
</symbol><symbol id="icon-logo" viewBox="0 0 67 67">
  <path fill="#fff" d="M0 67V0h67v67z"></path>
  <path fill="#1D2228" d="M30.31 38.86 20.73 57.2h-1.98L9.38 38.86h5.3l5.2 10.7 4.89-10.7h5.54Zm-2.86-11.2h-4.6v-7.64h-8.9v7.64H9.38V9.38h4.57v6.46h8.93V9.38h4.57v18.28Zm30.09 29.96H53v-9.05l.15-1.77-5.51 4.8L42 46.8c.08.75.12 1.37.12 1.86v8.96h-4.54V39.28h2.06l6.13 5.28 1.77 1.62c.75-.7 1.34-1.25 1.77-1.62l6.16-5.28h2.06v18.34Z"></path>
</symbol></svg>